<svg xmlns="http://www.w3.org/2000/svg" width="1280" height="1920" viewBox="0 0 1280 1920"><defs><linearGradient id="g" x1="0" y1="0" x2="1280" y2="1920" gradientUnits="userSpaceOnUse"><stop offset="0" stop-color="#10b981"/><stop offset="1" stop-color="#065f46"/></linearGradient><radialGradient id="hl" cx="320" cy="288" r="1344" gradientUnits="userSpaceOnUse"><stop offset="0" stop-color="#fff" stop-opacity=".28"/><stop offset="1" stop-color="#fff" stop-opacity="0"/></radialGradient></defs><rect width="1280" height="1920" fill="url(#g)"/><rect width="1280" height="1920" fill="url(#hl)"/><rect x="473.6" y="716.8000000000001" width="332.8" height="332.8" rx="93.18400000000001" fill="#fff" fill-opacity=".14" stroke="#fff" stroke-opacity=".25" stroke-width="3.84"/><g transform="translate(541.1306666666667 784.3306666666667) scale(8.597333333333333)"><path d="M11 20A7 7 0 0 1 9.8 6.1C15.5 5 17 4.5 19 2c1 2 2 4.2 2 8 0 5.5-4.8 10-10 10Z" fill="#ffffff"/><path d="M9.8 14.2C12.2 11.6 14.6 9.6 17.4 7.6" fill="none" stroke="#059669" stroke-width="1.5" stroke-linecap="round"/><path d="M2 21c0-3 1.9-5.5 6-7" fill="none" stroke="#ffffff" stroke-width="2.4" stroke-linecap="round"/></g><text x="640" y="1184.0000000000002" text-anchor="middle" font-family="Manrope, sans-serif" font-weight="800" font-size="89.60000000000001" fill="#fff">hashar<tspan fill="#fbbf24">chilar</tspan><tspan fill="#fff" fill-opacity=".6">.uz</tspan></text><text x="640" y="1265.9200000000003" text-anchor="middle" font-family="Manrope, sans-serif" font-weight="600" font-size="40.96" fill="#ecfdf5" fill-opacity=".85">Birgalikda obod qilamiz</text></svg>
