<svg xmlns="http://www.w3.org/2000/svg" width="64" height="64" viewBox="0 0 64 64"><defs><linearGradient id="g" x1="0" y1="0" x2="64" y2="64" gradientUnits="userSpaceOnUse"><stop offset="0" stop-color="#10b981"/><stop offset="1" stop-color="#065f46"/></linearGradient><radialGradient id="hl" cx="16" cy="9.6" r="44.8" gradientUnits="userSpaceOnUse"><stop offset="0" stop-color="#fff" stop-opacity=".28"/><stop offset="1" stop-color="#fff" stop-opacity="0"/></radialGradient></defs><rect x="2.6666666666666665" y="2.6666666666666665" width="58.666666666666664" height="58.666666666666664" rx="14.079999999999998" fill="url(#g)"/><rect x="2.6666666666666665" y="2.6666666666666665" width="58.666666666666664" height="58.666666666666664" rx="14.079999999999998" fill="url(#hl)"/><g transform="translate(14.826666666666664 14.826666666666664) scale(1.4933333333333334)"><path d="M11 20A7 7 0 0 1 9.8 6.1C15.5 5 17 4.5 19 2c1 2 2 4.2 2 8 0 5.5-4.8 10-10 10Z" fill="#ffffff"/><path d="M9.8 14.2C12.2 11.6 14.6 9.6 17.4 7.6" fill="none" stroke="#059669" stroke-width="1.5" stroke-linecap="round"/><path d="M2 21c0-3 1.9-5.5 6-7" fill="none" stroke="#ffffff" stroke-width="2.4" stroke-linecap="round"/></g></svg>
